HIERARCHY
ROOT newVegas:Hips
{
	OFFSET 0.000000 96.479958 0.000000
	CHANNELS 6 Xposition Yposition Zposition Xrotation Yrotation Zrotation
	JOINT newVegas:Pelvis
	{
		OFFSET 0.000000 0.000000 0.000000
		CHANNELS 3 Xrotation Yrotation Zrotation
		JOINT newVegas:LeftUpLeg
		{
			OFFSET 18.735201 -5.666702 -4.541200
			CHANNELS 3 Xrotation Yrotation Zrotation
			JOINT newVegas:LeftLeg
			{
				OFFSET -0.021200 -31.938179 0.493100
				CHANNELS 3 Xrotation Yrotation Zrotation
				JOINT newVegas:LeftFoot
				{
					OFFSET 0.021200 -31.938179 -4.336299
					CHANNELS 3 Xrotation Yrotation Zrotation
					JOINT newVegas:LeftToeBase
					{
						OFFSET 0.943001 -26.722000 15.023500
						CHANNELS 3 Xrotation Yrotation Zrotation
						End Site
						{
							OFFSET 0.000000 30.670183 0.000000
						}
					}
				}
				JOINT newVegas:Left_PantLeg
				{
					OFFSET 0.663870 -9.044666 -1.108900
					CHANNELS 3 Xrotation Yrotation Zrotation
					End Site
					{
						OFFSET 1.415995 20.635357 0.000000
					}
				}
			}
		}
		JOINT newVegas:RightUpLeg
		{
			OFFSET -18.735201 -5.666702 -4.541200
			CHANNELS 3 Xrotation Yrotation Zrotation
			JOINT newVegas:RightLeg
			{
				OFFSET 0.018946 -31.938133 0.493100
				CHANNELS 3 Xrotation Yrotation Zrotation
				JOINT newVegas:RightFoot
				{
					OFFSET -0.018946 -31.938126 -4.336299
					CHANNELS 3 Xrotation Yrotation Zrotation
					JOINT newVegas:RightToeBase
					{
						OFFSET -0.943001 -26.722004 15.023500
						CHANNELS 3 Xrotation Yrotation Zrotation
						End Site
						{
							OFFSET 0.000000 30.670187 0.000000
						}
					}
				}
				JOINT newVegas:Right_PantLeg
				{
					OFFSET -0.661674 -9.044716 -1.108900
					CHANNELS 3 Xrotation Yrotation Zrotation
					End Site
					{
						OFFSET -1.415958 20.635269 0.000000
					}
				}
			}
		}
	}
	JOINT newVegas:Spine
	{
		OFFSET 0.000000 10.199997 -0.299500
		CHANNELS 3 Xrotation Yrotation Zrotation
		JOINT newVegas:Spine1
		{
			OFFSET 0.000000 11.900002 -1.516600
			CHANNELS 3 Xrotation Yrotation Zrotation
			JOINT newVegas:Spine2
			{
				OFFSET 0.000000 13.600006 -2.842500
				CHANNELS 3 Xrotation Yrotation Zrotation
				JOINT newVegas:Neck
				{
					OFFSET 0.000000 9.624100 -2.890100
					CHANNELS 3 Xrotation Yrotation Zrotation
					JOINT newVegas:Head
					{
						OFFSET 0.000000 14.068802 -1.351900
						CHANNELS 3 Xrotation Yrotation Zrotation
						JOINT newVegas:Hair_Back
						{
							OFFSET 0.000000 3.231903 -17.524799
							CHANNELS 3 Xrotation Yrotation Zrotation
							End Site
							{
								OFFSET 0.000000 19.849884 0.000000
							}
						}
						JOINT newVegas:Hair_Front
						{
							OFFSET 0.000000 31.260406 4.573800
							CHANNELS 3 Xrotation Yrotation Zrotation
							JOINT newVegas:Hair_Front1
							{
								OFFSET 0.000000 2.284103 11.993300
								CHANNELS 3 Xrotation Yrotation Zrotation
								JOINT newVegas:Hair_Front2
								{
									OFFSET 0.000000 2.284103 11.993300
									CHANNELS 3 Xrotation Yrotation Zrotation
									End Site
									{
										OFFSET 0.000000 12.208862 0.000000
									}
								}
							}
						}
						JOINT newVegas:Jowel
						{
							OFFSET 0.000000 -7.458206 6.864100
							CHANNELS 3 Xrotation Yrotation Zrotation
							End Site
							{
								OFFSET 0.000000 19.849884 0.000000
							}
						}
					}
				}
				JOINT newVegas:LeftShoulder
				{
					OFFSET 15.263000 10.923401 -0.547700
					CHANNELS 3 Xrotation Yrotation Zrotation
					JOINT newVegas:LeftArm
					{
						OFFSET 25.438599 -2.830597 -13.032500
						CHANNELS 3 Xrotation Yrotation Zrotation
						JOINT newVegas:LeftForeArm
						{
							OFFSET 29.960503 0.000000 0.000000
							CHANNELS 3 Xrotation Yrotation Zrotation
							JOINT newVegas:LeftHand
							{
								OFFSET 27.849251 0.000000 0.000000
								CHANNELS 3 Xrotation Yrotation Zrotation
								JOINT newVegas:LeftHandThumb1
								{
									OFFSET 4.487587 -3.305161 6.305391
									CHANNELS 3 Xrotation Yrotation Zrotation
									JOINT newVegas:LeftHandThumb2
									{
										OFFSET 5.480453 -3.164139 3.164143
										CHANNELS 3 Xrotation Yrotation Zrotation
										JOINT newVegas:LeftHandThumb3
										{
											OFFSET 5.159721 -2.978973 2.978967
											CHANNELS 3 Xrotation Yrotation Zrotation
											End Site
											{
												OFFSET 2.494507 5.926697 1.738678
											}
										}
									}
								}
								JOINT newVegas:LeftHandIndex1
								{
									OFFSET 18.578728 -0.527832 5.208049
									CHANNELS 3 Xrotation Yrotation Zrotation
									JOINT newVegas:LeftHandIndex2
									{
										OFFSET 3.192009 0.000000 0.000000
										CHANNELS 3 Xrotation Yrotation Zrotation
										JOINT newVegas:LeftHandIndex3
										{
											OFFSET 3.835129 0.000000 0.000000
											CHANNELS 3 Xrotation Yrotation Zrotation
											End Site
											{
												OFFSET -0.034599 3.816971 0.371180
											}
										}
									}
								}
								JOINT newVegas:LeftHandMiddle1
								{
									OFFSET 18.476105 0.000000 0.000000
									CHANNELS 3 Xrotation Yrotation Zrotation
									JOINT newVegas:LeftHandMiddle2
									{
										OFFSET 3.324875 0.000000 0.000000
										CHANNELS 3 Xrotation Yrotation Zrotation
										JOINT newVegas:LeftHandMiddle3
										{
											OFFSET 4.596550 0.000000 0.000000
											CHANNELS 3 Xrotation Yrotation Zrotation
											End Site
											{
												OFFSET 0.057701 4.578827 0.399218
											}
										}
									}
								}
								JOINT newVegas:LeftHandRing1
								{
									OFFSET 17.732719 0.121887 -4.201567
									CHANNELS 3 Xrotation Yrotation Zrotation
									JOINT newVegas:LeftHandRing2
									{
										OFFSET 2.733170 0.000000 0.000000
										CHANNELS 3 Xrotation Yrotation Zrotation
										JOINT newVegas:LeftHandRing3
										{
											OFFSET 3.178268 0.000000 0.000000
											CHANNELS 3 Xrotation Yrotation Zrotation
											End Site
											{
												OFFSET 0.119102 3.170624 0.185394
											}
										}
									}
								}
								JOINT newVegas:LeftHandPinky1
								{
									OFFSET 15.989624 -0.606689 -7.535461
									CHANNELS 3 Xrotation Yrotation Zrotation
									JOINT newVegas:LeftHandPinky2
									{
										OFFSET 2.538986 0.000000 0.000000
										CHANNELS 3 Xrotation Yrotation Zrotation
										JOINT newVegas:LeftHandPinky3
										{
											OFFSET 2.593102 0.000000 0.000000
											CHANNELS 3 Xrotation Yrotation Zrotation
											End Site
											{
												OFFSET -0.150902 2.584198 0.152708
											}
										}
									}
								}
							}
							JOINT newVegas:Left_Sleeve
							{
								OFFSET 0.267448 -0.649796 0.577675
								CHANNELS 3 Xrotation Yrotation Zrotation
								End Site
								{
									OFFSET 0.000000 15.991241 0.000000
								}
							}
							JOINT newVegas:Left_CapeC
							{
								OFFSET 15.715958 -8.608795 -6.935905
								CHANNELS 3 Xrotation Yrotation Zrotation
								JOINT newVegas:Left_CapeC1
								{
									OFFSET 0.000000 -8.688499 0.000000
									CHANNELS 3 Xrotation Yrotation Zrotation
									End Site
									{
										OFFSET 0.000000 8.688499 0.000000
									}
								}
							}
						}
						JOINT newVegas:Left_CapeB
						{
							OFFSET 26.118385 -8.608795 -7.079235
							CHANNELS 3 Xrotation Yrotation Zrotation
							JOINT newVegas:Left_CapeB1
							{
								OFFSET 0.000000 -8.688499 0.000000
								CHANNELS 3 Xrotation Yrotation Zrotation
								End Site
								{
									OFFSET 0.000000 8.688499 0.000000
								}
							}
						}
						JOINT newVegas:Left_CapeA
						{
							OFFSET 5.115639 -8.608795 -10.395809
							CHANNELS 3 Xrotation Yrotation Zrotation
							JOINT newVegas:Left_CapeA1
							{
								OFFSET 0.000000 -8.688499 0.000000
								CHANNELS 3 Xrotation Yrotation Zrotation
								End Site
								{
									OFFSET 0.000000 8.688499 0.000000
								}
							}
						}
					}
				}
				JOINT newVegas:RightShoulder
				{
					OFFSET -15.263000 10.923401 -0.547700
					CHANNELS 3 Xrotation Yrotation Zrotation
					JOINT newVegas:RightArm
					{
						OFFSET -25.438599 -2.830597 -13.032500
						CHANNELS 3 Xrotation Yrotation Zrotation
						JOINT newVegas:RightForeArm
						{
							OFFSET -29.960503 0.000000 0.000000
							CHANNELS 3 Xrotation Yrotation Zrotation
							JOINT newVegas:RightHand
							{
								OFFSET -27.849251 0.000000 0.000000
								CHANNELS 3 Xrotation Yrotation Zrotation
								JOINT newVegas:RightHandThumb1
								{
									OFFSET -4.487587 -3.305161 6.305391
									CHANNELS 3 Xrotation Yrotation Zrotation
									JOINT newVegas:RightHandThumb2
									{
										OFFSET -5.480453 -3.164139 3.164143
										CHANNELS 3 Xrotation Yrotation Zrotation
										JOINT newVegas:RightHandThumb3
										{
											OFFSET -5.159721 -2.978973 2.978967
											CHANNELS 3 Xrotation Yrotation Zrotation
											End Site
											{
												OFFSET -2.494507 5.926697 1.738678
											}
										}
									}
								}
								JOINT newVegas:RightHandIndex1
								{
									OFFSET -18.578728 -0.527832 5.208049
									CHANNELS 3 Xrotation Yrotation Zrotation
									JOINT newVegas:RightHandIndex2
									{
										OFFSET -3.192009 0.000000 0.000000
										CHANNELS 3 Xrotation Yrotation Zrotation
										JOINT newVegas:RightHandIndex3
										{
											OFFSET -3.835129 0.000000 0.000000
											CHANNELS 3 Xrotation Yrotation Zrotation
											End Site
											{
												OFFSET 0.034599 3.816971 0.371180
											}
										}
									}
								}
								JOINT newVegas:RightHandMiddle1
								{
									OFFSET -18.476105 0.000000 0.000000
									CHANNELS 3 Xrotation Yrotation Zrotation
									JOINT newVegas:RightHandMiddle2
									{
										OFFSET -3.324875 0.000000 0.000000
										CHANNELS 3 Xrotation Yrotation Zrotation
										JOINT newVegas:RightHandMiddle3
										{
											OFFSET -4.596550 0.000000 0.000000
											CHANNELS 3 Xrotation Yrotation Zrotation
											End Site
											{
												OFFSET -0.057701 4.578827 0.399218
											}
										}
									}
								}
								JOINT newVegas:RightHandRing1
								{
									OFFSET -17.732719 0.121887 -4.201567
									CHANNELS 3 Xrotation Yrotation Zrotation
									JOINT newVegas:RightHandRing2
									{
										OFFSET -2.733170 0.000000 0.000000
										CHANNELS 3 Xrotation Yrotation Zrotation
										JOINT newVegas:RightHandRing3
										{
											OFFSET -3.178268 0.000000 0.000000
											CHANNELS 3 Xrotation Yrotation Zrotation
											End Site
											{
												OFFSET -0.119102 3.170624 0.185394
											}
										}
									}
								}
								JOINT newVegas:RightHandPinky1
								{
									OFFSET -15.989624 -0.606689 -7.535461
									CHANNELS 3 Xrotation Yrotation Zrotation
									JOINT newVegas:RightHandPinky2
									{
										OFFSET -2.538986 0.000000 0.000000
										CHANNELS 3 Xrotation Yrotation Zrotation
										JOINT newVegas:RightHandPinky3
										{
											OFFSET -2.593102 0.000000 0.000000
											CHANNELS 3 Xrotation Yrotation Zrotation
											End Site
											{
												OFFSET 0.150902 2.584198 0.152708
											}
										}
									}
								}
							}
							JOINT newVegas:Right_CapeC
							{
								OFFSET -15.715958 -8.608795 -6.935905
								CHANNELS 3 Xrotation Yrotation Zrotation
								JOINT newVegas:Right_CapeC1
								{
									OFFSET 0.000000 -8.688499 0.000000
									CHANNELS 3 Xrotation Yrotation Zrotation
									End Site
									{
										OFFSET 0.000000 8.688499 0.000000
									}
								}
							}
							JOINT newVegas:Right_Sleeve
							{
								OFFSET -0.267448 -0.649994 0.577675
								CHANNELS 3 Xrotation Yrotation Zrotation
								End Site
								{
									OFFSET 0.000000 15.991302 0.000000
								}
							}
						}
						JOINT newVegas:Right_CapeA
						{
							OFFSET -5.115540 -8.608795 -10.395824
							CHANNELS 3 Xrotation Yrotation Zrotation
							JOINT newVegas:Right_CapeA1
							{
								OFFSET 0.000000 -8.688499 0.000000
								CHANNELS 3 Xrotation Yrotation Zrotation
								End Site
								{
									OFFSET 0.000000 8.688499 0.000000
								}
							}
						}
						JOINT newVegas:Right_CapeB
						{
							OFFSET -26.118187 -8.608795 -7.079266
							CHANNELS 3 Xrotation Yrotation Zrotation
							JOINT newVegas:Right_CapeB1
							{
								OFFSET 0.000000 -8.688499 0.000000
								CHANNELS 3 Xrotation Yrotation Zrotation
								End Site
								{
									OFFSET 0.000000 8.688499 0.000000
								}
							}
						}
					}
				}
				JOINT newVegas:Left_Collar
				{
					OFFSET 18.625099 8.655502 8.828100
					CHANNELS 3 Xrotation Yrotation Zrotation
					JOINT newVegas:Left_Collar1
					{
						OFFSET 14.783401 10.540405 -1.259500
						CHANNELS 3 Xrotation Yrotation Zrotation
						End Site
						{
							OFFSET 0.000000 18.199875 0.000000
						}
					}
				}
				JOINT newVegas:Collar_Back
				{
					OFFSET 0.000000 15.630707 -20.132601
					CHANNELS 3 Xrotation Yrotation Zrotation
					End Site
					{
						OFFSET 0.000000 22.523010 0.000000
					}
				}
				JOINT newVegas:Left_Peck
				{
					OFFSET 17.239599 -5.132599 25.482599
					CHANNELS 3 Xrotation Yrotation Zrotation
					End Site
					{
						OFFSET 0.000000 22.523010 0.000000
					}
				}
				JOINT newVegas:Right_Peck
				{
					OFFSET -17.239599 -5.132202 25.482599
					CHANNELS 3 Xrotation Yrotation Zrotation
					End Site
					{
						OFFSET 0.000000 22.523010 0.000000
					}
				}
				JOINT newVegas:Right_Collar
				{
					OFFSET -18.625099 8.655792 8.828100
					CHANNELS 3 Xrotation Yrotation Zrotation
					JOINT newVegas:Right_Collar1
					{
						OFFSET -14.783401 10.539993 -1.259500
						CHANNELS 3 Xrotation Yrotation Zrotation
						End Site
						{
							OFFSET 0.000000 18.199631 0.000000
						}
					}
				}
			}
		}
		JOINT newVegas:Belly
		{
			OFFSET 0.000000 -6.540398 9.014299
			CHANNELS 3 Xrotation Yrotation Zrotation
			End Site
			{
				OFFSET 0.000000 11.566666 0.000000
			}
		}
	}
	JOINT newVegas:ElvisFacialAnim_Joint
	{
		OFFSET 1.000000 -95.330101 -8.825800
		CHANNELS 3 Xrotation Yrotation Zrotation
		End Site
		{
			OFFSET 0.000000 35.315800 0.000000
		}
	}
}
MOTION
Frames: 4
Frame Time: 0.016667
-3.526491 78.410332 3.057365 11.660461 -49.374427 11.268421 -0.000000 0.000002 -0.000000 -69.006911 20.606623 47.788156 51.256543 -22.124332 3.397175 2.960996 1.488329 -15.125418 -0.000000 -0.000002 0.000000 -0.000000 0.000001 0.000001 -33.116213 3.851242 -30.939842 58.819274 4.953835 -6.674888 -30.772652 -6.442853 30.151966 -0.000000 0.000000 0.000000 -0.000001 -0.000002 -0.000001 10.972581 2.720467 -2.032878 6.100711 5.566507 -4.284673 -5.786924 6.328167 -3.046189 0.458789 1.873389 -0.022554 0.458778 1.873405 -0.022551 0.000000 0.000001 -0.000001 0.458786 1.873392 -0.022552 0.458789 1.873398 -0.022552 -0.000002 -0.000002 -0.000000 0.000000 0.000001 -0.000001 -1.875345 -16.181697 -2.870489 -10.644670 2.164703 -45.510592 -22.862387 -25.786271 -15.871726 2.491045 -2.511835 6.860517 18.457965 -9.513814 13.216566 -1.150184 11.255338 -8.400805 0.000002 -0.000002 -0.000005 -1.232781 -5.771918 -0.192335 0.133953 -0.197658 -4.602108 -0.000002 0.000002 0.000000 1.884768 4.663353 -4.597418 0.476679 -1.009834 -12.986438 -0.000004 -0.000000 -0.000000 3.024648 7.938923 -14.103483 -0.708014 -0.566241 -18.895752 -0.000001 0.000001 0.000003 2.010406 6.305959 -22.386553 -0.815350 -0.210794 -16.746480 -0.000000 0.000002 -0.000000 -0.000001 0.000001 -0.000000 -0.000001 0.000001 -0.000000 -0.000002 0.000001 -0.000000 -0.000000 -0.000001 -0.000001 -0.000000 0.000000 -0.000001 -0.000000 -0.000001 -0.000001 -0.000001 0.000000 -0.000001 -5.074598 24.343689 1.482627 6.642387 -34.733701 57.610487 -21.031976 44.833847 19.961653 -0.087304 35.608481 7.474350 55.149556 18.649555 -29.698287 -0.442536 -14.180583 7.313148 0.000002 -0.000003 -0.000003 5.673416 7.585012 36.844144 1.050470 3.824519 68.900250 -0.000000 -0.000001 0.000000 -0.125705 1.886089 45.000756 -1.168982 3.204686 68.417650 -0.000002 0.000000 0.000001 -5.311988 1.216662 58.508787 -0.745220 1.667589 48.011302 -0.000003 0.000004 0.000000 -7.756796 -9.376485 47.263973 -0.526026 1.541634 45.600515 0.000003 0.000001 0.000002 -0.000001 0.000001 -0.000003 -0.000001 -0.000001 0.000000 -0.000001 0.000001 -0.000002 0.000001 0.000001 -0.000002 0.000002 0.000001 0.000001 0.000001 0.000001 -0.000002 0.000002 0.000001 0.000001 -0.000000 0.000003 -0.000001 -0.000000 0.000003 -0.000001 -0.000000 0.000003 -0.000001 -0.000000 0.000003 -0.000001 -0.000000 0.000003 -0.000001 -0.000000 0.000003 -0.000001 -0.000000 0.000003 -0.000001 -0.000000 -0.000002 0.000001 -0.000000 0.000002 -0.000000 
-3.627837 78.087959 3.135249 17.318590 -51.133590 16.004605 -0.000000 0.000002 -0.000000 -70.071949 19.907549 47.869234 52.089359 -21.242172 3.529867 1.401865 3.758047 -16.545838 -0.000000 0.000002 0.000000 -0.000000 0.000000 -0.000000 -37.838278 5.986994 -30.246171 58.951677 5.176583 -6.693962 -29.734689 -5.485258 30.303476 -0.000000 0.000003 0.000000 0.000000 -0.000001 -0.000003 6.599779 3.126869 -1.419487 4.905271 6.087639 -4.052454 -6.993464 6.770111 -2.740921 -0.197865 0.754960 0.007320 -0.197865 0.754988 0.007310 0.000002 -0.000000 -0.000000 -0.197724 0.754967 0.007317 -0.197942 0.754970 0.007319 0.000002 -0.000002 0.000000 0.000002 -0.000000 -0.000000 -2.019446 -12.678708 -1.080113 -6.222603 2.408193 -48.336074 -21.610058 -26.352738 -14.989767 2.965867 -1.783768 8.412973 18.064706 -9.416800 14.872086 -0.773616 11.739599 -8.473109 0.000002 -0.000002 -0.000003 -1.184293 -5.275866 -1.333409 0.131712 -0.224517 -5.199136 -0.000001 0.000001 0.000000 1.542732 3.201541 -5.955565 0.477923 -1.005706 -12.916742 0.000001 -0.000001 -0.000000 2.085937 6.252213 -15.478209 -0.700602 -0.534752 -18.124346 0.000003 0.000003 -0.000002 1.342398 5.609881 -22.650041 -0.814036 -0.196014 -16.362350 -0.000002 0.000000 0.000000 0.000001 -0.000001 0.000002 0.000001 -0.000001 0.000002 0.000000 -0.000001 0.000002 -0.000002 -0.000001 0.000001 -0.000002 -0.000001 -0.000002 -0.000002 -0.000001 0.000001 -0.000003 -0.000001 0.000001 -5.292524 23.824654 2.533291 6.218720 -35.596129 55.188113 -22.397613 43.628219 20.943863 3.828324 34.139212 9.201640 55.149550 18.649557 -29.698287 -0.442533 -14.180592 7.313148 -0.000000 0.000001 -0.000000 5.673416 7.585012 36.844151 1.050474 3.824521 68.900250 0.000001 -0.000001 -0.000001 -0.125702 1.886090 45.000756 -1.168984 3.204689 68.417650 0.000000 -0.000001 0.000000 -5.311985 1.216662 58.508787 -0.745218 1.667589 48.011302 0.000001 -0.000001 0.000000 -7.756793 -9.376485 47.263973 -0.526024 1.541636 45.600511 0.000002 -0.000000 -0.000001 -0.000003 -0.000001 -0.000003 0.000001 0.000000 0.000003 -0.000003 -0.000001 -0.000003 0.000002 -0.000003 0.000001 0.000003 -0.000002 0.000002 0.000002 -0.000003 0.000001 0.000003 -0.000002 0.000003 -0.000000 0.000000 -0.000000 -0.000000 0.000000 -0.000000 -0.000000 0.000000 -0.000000 -0.000000 0.000000 -0.000000 -0.000000 0.000000 -0.000000 -0.000000 0.000000 -0.000000 -0.000000 0.000000 -0.000000 -0.000000 0.000001 -0.000000 -0.000000 0.000002 -0.000000 
-3.877827 77.650688 3.559978 23.026627 -51.121968 21.226252 -0.000000 0.000003 -0.000000 -71.612266 19.802067 46.996052 52.695316 -20.702879 3.590409 0.128954 5.502557 -17.377823 -0.000000 -0.000000 -0.000000 -0.000000 0.000002 -0.000000 -41.337364 7.974259 -30.286497 59.147034 4.954184 -6.744924 -29.548778 -5.653656 30.876031 -0.000000 0.000005 0.000000 -0.000001 0.000003 -0.000005 1.926468 3.130160 -0.627471 3.783558 5.915590 -3.917739 -8.078002 6.563212 -2.613886 -1.061205 -0.849711 0.385017 -1.061198 -0.849711 0.385020 -0.000000 0.000003 -0.000001 -1.061278 -0.849711 0.385016 -1.061136 -0.849656 0.385011 -0.000001 -0.000001 0.000001 -0.000000 0.000003 -0.000001 -2.338701 -9.267081 0.477312 0.012358 1.464316 -49.562230 -21.267394 -30.655706 -14.789834 4.369183 -3.947311 9.995074 17.604358 -9.261269 16.773922 -0.387779 12.245202 -8.536495 0.000001 -0.000001 -0.000004 -1.103378 -4.719078 -2.651488 0.129744 -0.245652 -5.669171 0.000002 -0.000003 0.000001 1.185362 1.599515 -7.313226 0.484454 -0.983402 -12.540471 0.000000 -0.000001 -0.000001 1.012831 4.393958 -16.937191 -0.690366 -0.487695 -16.975144 -0.000001 0.000003 -0.000003 0.513813 4.787121 -22.957002 -0.812385 -0.176156 -15.846285 -0.000003 -0.000002 0.000002 -0.000001 -0.000003 0.000001 -0.000001 -0.000003 0.000001 -0.000002 -0.000003 0.000001 -0.000000 -0.000001 -0.000003 0.000000 -0.000002 -0.000004 -0.000000 -0.000001 -0.000003 -0.000001 -0.000001 -0.000001 -5.306080 22.788513 3.827939 7.662527 -36.585679 53.035521 -27.334610 45.566497 26.031878 8.948058 30.429306 10.709118 55.149553 18.649558 -29.698287 -0.442534 -14.180584 7.313149 0.000002 -0.000002 -0.000001 5.673420 7.585006 36.844151 1.050471 3.824514 68.900250 0.000001 0.000000 -0.000001 -0.125702 1.886088 45.000756 -1.168983 3.204687 68.417650 -0.000001 0.000001 -0.000000 -5.311982 1.216658 58.508787 -0.745220 1.667589 48.011302 0.000000 0.000002 0.000001 -7.756792 -9.376492 47.263980 -0.526026 1.541635 45.600511 0.000002 0.000003 -0.000003 0.000003 0.000000 -0.000001 0.000003 -0.000002 0.000002 0.000003 -0.000000 -0.000001 -0.000002 0.000002 -0.000003 -0.000001 0.000002 -0.000002 -0.000002 0.000002 -0.000003 -0.000001 0.000001 -0.000000 0.000001 -0.000001 -0.000000 0.000001 -0.000001 -0.000000 0.000001 -0.000001 -0.000000 0.000001 -0.000001 -0.000000 0.000001 -0.000001 -0.000000 0.000001 -0.000001 -0.000000 0.000001 -0.000001 -0.000000 0.000001 -0.000001 -0.000000 -0.000000 0.000003 -0.000000 
-4.275518 77.237709 4.191750 27.352073 -49.706640 25.517619 -0.000000 -0.000000 0.000000 -73.106069 20.324766 45.473197 52.726677 -20.545892 3.567890 -0.670028 6.534382 -17.690583 -0.000000 0.000000 -0.000000 0.000001 0.000001 -0.000001 -43.214494 9.568788 -31.069021 59.449277 4.452056 -6.785803 -30.164663 -6.702826 31.599563 -0.000000 0.000003 0.000000 -0.000002 -0.000003 0.000000 -1.832568 2.686972 0.055581 3.102664 5.088903 -3.978475 -8.666746 5.787711 -2.761520 -1.735254 -2.562421 1.384411 -1.735253 -2.562427 1.384407 0.000000 0.000002 0.000000 -1.735186 -2.562416 1.384413 -1.735333 -2.562422 1.384403 0.000000 0.000000 -0.000000 0.000000 0.000002 -0.000000 -2.777914 -7.561338 3.202649 6.336161 0.679712 -51.194286 -20.920400 -35.100906 -14.588094 5.409421 -8.008561 10.884735 17.109796 -9.079811 18.724414 0.002453 12.754326 -8.604145 0.000002 -0.000004 -0.000001 -0.983826 -4.156244 -4.002704 0.127624 -0.266913 -6.142142 0.000000 -0.000000 0.000001 0.803369 -0.034189 -8.704974 0.492102 -0.956444 -12.087567 0.000001 0.000000 0.000003 -0.132070 2.515802 -18.482079 -0.680297 -0.436495 -15.731490 -0.000001 0.000003 0.000002 -0.362783 3.941784 -23.293201 -0.810863 -0.154959 -15.297262 0.000001 0.000002 0.000002 0.000000 -0.000000 -0.000002 0.000000 -0.000000 -0.000002 -0.000001 0.000000 -0.000002 -0.000001 0.000000 0.000001 -0.000000 -0.000001 -0.000002 -0.000001 0.000000 0.000001 -0.000001 -0.000000 0.000001 -5.506174 20.977700 6.822259 8.426891 -38.300819 48.596386 -35.680082 50.798927 35.841206 12.703971 25.022424 12.320494 55.149556 18.649560 -29.698281 -0.442533 -14.180588 7.313148 0.000001 -0.000000 -0.000003 5.673421 7.585008 36.844154 1.050474 3.824521 68.900257 -0.000002 0.000002 0.000001 -0.125702 1.886089 45.000766 -1.168983 3.204683 68.417650 0.000001 0.000001 -0.000001 -5.311985 1.216660 58.508787 -0.745219 1.667591 48.011298 0.000001 -0.000001 0.000001 -7.756792 -9.376489 47.263980 -0.526028 1.541634 45.600518 0.000006 0.000003 -0.000002 -0.000002 -0.000001 -0.000002 -0.000001 0.000000 0.000000 -0.000002 -0.000001 -0.000002 -0.000001 -0.000001 -0.000002 -0.000000 0.000000 -0.000003 -0.000001 -0.000001 -0.000002 -0.000000 -0.000000 -0.000001 -0.000000 -0.000002 0.000001 -0.000000 -0.000002 0.000001 -0.000000 -0.000002 0.000001 -0.000000 -0.000002 0.000001 -0.000000 -0.000002 0.000001 -0.000000 -0.000002 0.000001 -0.000000 -0.000002 0.000001 0.000001 0.000000 -0.000000 -0.000000 -0.000000 0.000000 
